<?xml version="1.0" standalone="no"?>
<!DOCTYPE svg PUBLIC "-//W3C//DTD SVG 20010904//EN"
 "http://www.w3.org/TR/2001/REC-SVG-20010904/DTD/svg10.dtd">
<svg version="1.0" xmlns="http://www.w3.org/2000/svg"
 width="400.000000pt" height="400.000000pt" viewBox="0 0 400.000000 400.000000"
 preserveAspectRatio="xMidYMid meet">
<metadata>
Created by potrace 1.11, written by Peter Selinger 2001-2013
</metadata>
<g transform="translate(0.000000,400.000000) scale(0.100000,-0.100000)"
fill="#000000" stroke="none">
<path d="M0 2000 l0 -2000 2000 0 2000 0 0 2000 0 2000 -2000 0 -2000 0 0
-2000z m2295 1396 c140 -24 231 -53 328 -103 218 -113 337 -320 337 -586 0
-251 -133 -462 -371 -587 l-71 -37 54 -30 c77 -44 157 -135 206 -234 41 -86
61 -151 176 -575 36 -132 74 -262 85 -287 l20 -47 -289 0 -289 0 -15 28 c-24
47 -82 240 -131 432 -76 306 -93 348 -169 428 -63 66 -122 84 -293 90 l-143 5
0 -492 0 -491 -280 0 -280 0 0 1229 0 1229 28 5 c226 45 894 59 1097 23z"/>
<path d="M1780 2991 l-45 -6 -3 -342 -2 -343 163 0 c112 0 181 5 220 15 124
32 211 97 257 190 21 43 25 64 25 150 0 83 -4 108 -23 150 -63 137 -193 196
-427 193 -66 0 -140 -4 -165 -7z"/>
</g>
</svg>
