<?xml version="1.0" standalone="no"?>
<!DOCTYPE svg PUBLIC "-//W3C//DTD SVG 20010904//EN"
        "http://www.w3.org/TR/2001/REC-SVG-20010904/DTD/svg10.dtd">
<svg version="1.0" xmlns="http://www.w3.org/2000/svg"
     width="260.000000pt" height="260.000000pt" viewBox="0 0 260.000000 260.000000"
     preserveAspectRatio="xMidYMid meet">
    <metadata>
        Created by potrace 1.11, written by Peter Selinger 2001-2013
    </metadata>
    <g transform="translate(0.000000,260.000000) scale(0.100000,-0.100000)"
       fill="#000000" stroke="none">
        <path d="M0 1300 l0 -1300 215 0 215 0 0 85 0 85 -130 0 -130 0 0 1130 0 1130
500 0 500 0 0 85 0 85 -585 0 -585 0 0 -1300z"/>
        <path d="M2210 2515 l0 -85 110 0 110 0 0 -1130 0 -1130 -480 0 -480 0 0 -85
0 -85 565 0 565 0 0 1300 0 1300 -195 0 -195 0 0 -85z"/>
        <path d="M550 1301 l0 -971 220 0 220 0 0 376 0 376 88 -4 c73 -3 94 -8 123
-28 74 -52 86 -69 309 -443 l165 -276 252 -1 253 0 -82 128 c-44 70 -103 163
-131 207 -58 93 -122 192 -186 290 -61 92 -177 210 -231 234 l-44 20 29 7 c81
20 199 88 260 150 99 102 146 213 151 359 4 117 -7 177 -47 261 -66 140 -197
222 -429 270 -19 4 -234 9 -477 11 l-443 4 0 -970z m776 628 c79 -24 129 -73
150 -147 42 -144 -21 -289 -154 -353 -40 -20 -67 -23 -189 -27 l-143 -4 0 276
0 277 137 -2 c104 -1 153 -6 199 -20z"/>
    </g>
</svg>
