<?xml version="1.0" standalone="no"?>
<!DOCTYPE svg PUBLIC "-//W3C//DTD SVG 20010904//EN"
 "http://www.w3.org/TR/2001/REC-SVG-20010904/DTD/svg10.dtd">
<svg version="1.0" xmlns="http://www.w3.org/2000/svg"
 width="512.000000pt" height="512.000000pt" viewBox="0 0 512.000000 512.000000"
 preserveAspectRatio="xMidYMid meet">
<metadata>
Created by potrace 1.11, written by Peter Selinger 2001-2013
</metadata>
<g transform="translate(0.000000,512.000000) scale(0.100000,-0.100000)"
fill="#000000" stroke="none">
<path d="M2545 4945 c-22 -24 -44 -44 -48 -44 -5 -1 -27 -19 -50 -40 -78 -73
-256 -231 -261 -231 -2 0 -25 -19 -50 -42 -24 -24 -70 -67 -100 -95 -31 -29
-60 -53 -65 -53 -5 0 -20 -12 -33 -27 -13 -16 -44 -44 -70 -63 -26 -19 -48
-40 -48 -45 0 -9 -36 -38 -50 -40 -3 -1 -28 -23 -56 -50 -28 -28 -72 -68 -98
-90 -85 -72 -256 -223 -320 -283 -21 -20 -42 -37 -45 -37 -4 0 -30 -24 -59
-52 -28 -29 -55 -53 -59 -53 -5 0 -25 -18 -46 -40 -20 -22 -40 -40 -44 -40 -7
0 -91 -75 -163 -146 -25 -24 -48 -44 -52 -44 -3 0 -27 -19 -52 -42 -25 -24
-71 -65 -102 -93 -31 -27 -62 -56 -69 -62 -8 -7 -16 -13 -18 -13 -5 0 -55 -46
-129 -119 -21 -20 -41 -36 -45 -36 -5 0 -32 -23 -61 -50 -29 -28 -75 -71 -102
-97 -28 -26 -50 -45 -50 -42 0 6 -180 -154 -192 -171 -4 -5 -8 -15 -8 -21 0
-24 102 -111 137 -117 10 -1 23 -5 28 -8 15 -9 105 -10 118 -2 14 9 34 14 60
16 9 1 17 5 17 9 0 4 6 8 13 8 20 0 137 87 218 163 16 15 32 27 35 27 3 0 42
32 87 71 45 39 99 86 120 103 20 17 53 46 72 64 19 17 39 32 44 32 5 0 23 16
41 36 17 20 33 34 36 32 2 -3 24 13 47 36 44 41 95 86 163 141 20 17 54 47 76
68 22 20 42 37 45 37 3 0 27 18 52 41 75 67 116 102 155 134 21 17 53 44 71
61 19 18 35 30 37 28 3 -2 22 14 43 36 22 22 42 40 47 40 4 0 25 19 48 42 22
23 40 38 40 34 0 -4 13 6 29 23 16 17 32 31 35 31 4 0 23 16 44 34 59 56 211
186 215 186 4 0 65 52 119 103 16 15 33 27 36 27 4 0 21 13 37 30 17 16 55 50
85 75 30 25 69 58 85 73 17 15 40 32 52 39 24 13 13 21 153 -112 35 -33 65
-59 67 -57 2 2 29 -22 59 -53 30 -31 54 -53 54 -48 0 4 26 -17 58 -48 84 -83
178 -169 184 -169 3 0 34 -27 69 -60 150 -142 170 -160 177 -160 4 0 29 -23
55 -50 27 -28 52 -50 56 -50 4 0 33 -27 66 -60 32 -33 60 -58 62 -56 2 2 29
-23 60 -55 31 -32 59 -57 63 -56 3 1 29 -22 57 -50 29 -29 55 -53 60 -53 4 0
31 -22 58 -49 28 -27 76 -73 108 -103 32 -29 65 -59 73 -66 8 -7 14 -11 14 -8
0 3 23 -19 52 -49 29 -30 56 -55 60 -55 4 0 33 -24 63 -52 87 -84 157 -146
194 -173 19 -14 31 -25 26 -25 -5 0 8 -12 30 -27 22 -14 42 -29 45 -33 8 -10
84 -44 93 -42 4 1 7 -2 7 -8 0 -5 7 -10 16 -10 8 0 25 -5 37 -12 31 -17 42
-19 125 -22 39 -1 72 1 72 6 0 4 9 8 20 8 11 0 23 7 26 15 4 8 11 12 16 9 11
-7 98 74 98 92 0 6 -22 34 -50 62 -27 28 -50 48 -50 45 0 -4 -33 25 -73 63
-40 38 -101 95 -137 127 -36 32 -93 85 -127 118 -35 33 -63 57 -63 54 0 -2
-29 24 -65 58 -36 34 -88 82 -116 107 -79 70 -228 206 -290 266 -31 30 -59 54
-63 54 -3 0 -31 24 -61 53 -56 52 -127 118 -265 242 -147 132 -222 201 -280
258 -33 32 -60 54 -60 50 0 -4 -29 23 -65 59 -36 37 -65 64 -65 61 0 -3 -31
23 -68 58 -38 35 -101 93 -140 129 -40 36 -97 89 -126 118 -29 28 -57 52 -61
52 -5 0 -34 25 -64 55 -132 129 -218 205 -232 204 -8 -1 -32 -21 -54 -44z"/>
<path d="M4010 4426 c0 -28 -1 -169 -1 -313 -1 -143 2 -266 5 -272 4 -6 12
-11 17 -11 5 0 26 -18 46 -40 21 -22 42 -40 49 -40 6 0 21 -13 34 -30 13 -16
28 -30 34 -30 7 0 28 -18 49 -40 20 -22 40 -40 45 -40 4 0 23 -16 42 -35 19
-19 37 -35 41 -35 4 0 21 -12 37 -27 52 -49 87 -78 96 -80 5 -1 12 -6 16 -13
4 -6 6 19 4 55 -2 37 -6 71 -9 76 -4 5 -3 9 2 9 4 0 7 24 5 52 -2 29 -3 58 -3
63 0 6 1 67 2 137 1 69 -2 131 -5 137 -4 6 -4 11 1 11 4 0 7 21 5 47 -4 66 -3
126 2 130 2 3 0 18 -4 34 -5 16 -6 29 -2 29 4 0 6 24 4 52 -4 68 -4 61 -1 148
l3 75 -257 1 -257 0 0 -50z"/>
<path d="M2540 4100 c-22 -22 -40 -37 -40 -32 0 4 -6 0 -13 -8 -7 -8 -46 -44
-87 -78 -41 -35 -90 -77 -107 -92 -18 -16 -33 -27 -33 -24 0 3 -16 -10 -35
-30 -19 -20 -37 -36 -41 -36 -3 0 -37 -27 -74 -60 -37 -33 -70 -60 -74 -60 -3
0 -26 -19 -50 -42 -25 -24 -58 -53 -73 -65 -15 -12 -44 -36 -63 -52 -19 -17
-57 -48 -85 -71 -27 -23 -68 -57 -90 -76 -22 -19 -56 -48 -75 -64 -19 -16 -70
-59 -112 -95 -42 -36 -81 -65 -85 -65 -4 -1 -19 -14 -33 -30 -13 -17 -29 -30
-35 -30 -5 0 -21 -13 -35 -30 -14 -16 -29 -30 -35 -30 -6 0 -25 -16 -43 -35
-17 -20 -32 -33 -32 -29 0 6 -75 -59 -132 -114 -16 -15 -32 -27 -36 -27 -4 0
-23 -16 -42 -35 -19 -19 -37 -35 -40 -35 -3 1 -16 -9 -30 -21 -81 -70 -178
-152 -200 -169 l-25 -20 1 -1002 c0 -552 4 -1006 7 -1010 4 -3 7 -14 7 -23 0
-9 13 -28 28 -43 l28 -27 671 0 670 0 3 77 c1 43 5 305 9 582 l6 504 37 31 37
31 335 0 c185 0 336 -3 336 -7 0 -5 6 -8 13 -8 17 0 57 -34 57 -48 0 -6 5 -12
11 -14 13 -4 28 -157 19 -188 -2 -7 -2 -123 0 -135 1 -5 2 -13 1 -18 -1 -6 -2
-184 -1 -242 0 -11 0 -102 0 -201 -1 -100 0 -185 1 -190 1 -5 0 -13 -1 -19 -5
-25 1 -140 8 -147 5 -5 305 -7 668 -6 l659 3 35 34 35 34 3 1016 2 1016 -40
43 c-22 23 -43 42 -48 42 -4 0 -30 22 -57 50 -28 27 -53 50 -58 50 -4 0 -28
23 -54 50 -26 28 -51 50 -55 50 -5 0 -31 23 -58 50 -27 28 -52 50 -56 50 -4 0
-30 22 -58 49 -28 27 -82 77 -121 111 -114 101 -177 158 -227 206 -25 24 -49
44 -53 44 -4 0 -28 20 -54 44 -44 42 -93 86 -245 221 -37 33 -85 77 -107 98
-22 20 -42 37 -45 37 -3 0 -27 20 -52 45 -26 24 -103 94 -172 155 -69 60 -146
130 -171 155 -25 25 -48 45 -52 45 -4 0 -25 -18 -47 -40z"/>
</g>
</svg>
